<svg viewBox="0 0 567 176" fill="none" style="max-width:567px; height:auto;" xmlns="http://www.w3.org/2000/svg">
<g clip-path="url(#clip0_2_22)">
<path d="M131 176H259.235H567V0H131V176Z" fill="#F0F0F0"/>
<path d="M0 176H39.1176H133V0H0V176Z" fill="#333333"/>
<path d="M168.029 36.5H188.763V114.635L186.609 131H168.029V36.5ZM229.614 96.9775V98.2695C229.614 103.314 229.102 107.908 228.076 112.051C227.051 116.193 225.472 119.782 223.339 122.817C221.206 125.812 218.52 128.129 215.279 129.77C212.039 131.41 208.204 132.23 203.774 132.23C199.755 132.23 196.31 131.369 193.438 129.646C190.567 127.883 188.168 125.463 186.24 122.387C184.312 119.27 182.754 115.681 181.564 111.62C180.375 107.519 179.432 103.13 178.734 98.4541V96.916C179.432 92.2812 180.375 87.9336 181.564 83.873C182.754 79.7715 184.312 76.1826 186.24 73.1064C188.168 69.9893 190.547 67.5693 193.377 65.8467C196.248 64.083 199.673 63.2012 203.651 63.2012C208.122 63.2012 211.978 64.042 215.218 65.7236C218.499 67.4053 221.206 69.7637 223.339 72.7988C225.472 75.834 227.051 79.4023 228.076 83.5039C229.102 87.6055 229.614 92.0967 229.614 96.9775ZM208.881 98.2695V96.9775C208.881 94.5576 208.737 92.2812 208.45 90.1484C208.163 88.0156 207.65 86.1289 206.912 84.4883C206.174 82.8477 205.128 81.5557 203.774 80.6123C202.421 79.6689 200.657 79.1973 198.483 79.1973C196.269 79.1973 194.402 79.5664 192.885 80.3047C191.408 81.043 190.219 82.1094 189.316 83.5039C188.455 84.8574 187.84 86.5391 187.471 88.5488C187.102 90.5176 186.938 92.7529 186.979 95.2549V100.115C186.896 103.52 187.204 106.432 187.901 108.852C188.599 111.271 189.809 113.117 191.531 114.389C193.254 115.66 195.612 116.296 198.606 116.296C200.821 116.296 202.605 115.865 203.959 115.004C205.354 114.143 206.399 112.912 207.097 111.312C207.794 109.713 208.266 107.806 208.512 105.591C208.758 103.376 208.881 100.936 208.881 98.2695ZM273.601 132.23C268.187 132.23 263.347 131.39 259.082 129.708C254.816 127.985 251.207 125.627 248.253 122.633C245.341 119.639 243.106 116.193 241.547 112.297C240.03 108.4 239.271 104.278 239.271 99.9307V97.5928C239.271 92.7119 239.948 88.2002 241.301 84.0576C242.655 79.874 244.665 76.2236 247.331 73.1064C249.997 69.9893 253.339 67.5693 257.359 65.8467C261.378 64.083 266.054 63.2012 271.386 63.2012C276.103 63.2012 280.328 63.96 284.06 65.4775C287.792 66.9951 290.951 69.1689 293.535 71.999C296.16 74.8291 298.149 78.2539 299.502 82.2734C300.897 86.293 301.594 90.8047 301.594 95.8086V104.237H247.207V91.2559H281.353V89.6562C281.394 87.4414 281.004 85.5547 280.184 83.9961C279.405 82.4375 278.256 81.248 276.739 80.4277C275.221 79.6074 273.375 79.1973 271.202 79.1973C268.946 79.1973 267.08 79.6895 265.603 80.6738C264.167 81.6582 263.04 83.0117 262.219 84.7344C261.44 86.416 260.886 88.3643 260.558 90.5791C260.23 92.7939 260.066 95.1318 260.066 97.5928V99.9307C260.066 102.392 260.394 104.627 261.05 106.637C261.748 108.646 262.732 110.369 264.003 111.805C265.316 113.199 266.874 114.286 268.679 115.065C270.525 115.845 272.617 116.234 274.955 116.234C277.785 116.234 280.574 115.701 283.322 114.635C286.07 113.568 288.428 111.805 290.397 109.344L299.81 120.541C298.457 122.469 296.529 124.335 294.027 126.14C291.566 127.944 288.613 129.421 285.167 130.569C281.722 131.677 277.867 132.23 273.601 132.23ZM347.611 64.4316V78.8281H307.498V64.4316H347.611ZM315.927 47.8818H336.66V109.282C336.66 111.046 336.865 112.42 337.275 113.404C337.686 114.348 338.383 115.024 339.367 115.435C340.393 115.804 341.746 115.988 343.428 115.988C344.617 115.988 345.602 115.968 346.381 115.927C347.16 115.845 347.898 115.742 348.596 115.619V130.446C346.832 131.021 344.986 131.451 343.059 131.738C341.131 132.066 339.08 132.23 336.906 132.23C332.477 132.23 328.683 131.533 325.524 130.139C322.407 128.744 320.028 126.55 318.388 123.556C316.747 120.562 315.927 116.665 315.927 111.866V47.8818ZM393.444 64.4316V78.8281H353.331V64.4316H393.444ZM361.759 47.8818H382.493V109.282C382.493 111.046 382.698 112.42 383.108 113.404C383.518 114.348 384.215 115.024 385.2 115.435C386.225 115.804 387.579 115.988 389.26 115.988C390.45 115.988 391.434 115.968 392.213 115.927C392.993 115.845 393.731 115.742 394.428 115.619V130.446C392.664 131.021 390.819 131.451 388.891 131.738C386.963 132.066 384.913 132.23 382.739 132.23C378.309 132.23 374.515 131.533 371.357 130.139C368.24 128.744 365.861 126.55 364.22 123.556C362.58 120.562 361.759 116.665 361.759 111.866V47.8818ZM436.446 132.23C431.032 132.23 426.192 131.39 421.927 129.708C417.661 127.985 414.052 125.627 411.099 122.633C408.186 119.639 405.951 116.193 404.393 112.297C402.875 108.4 402.116 104.278 402.116 99.9307V97.5928C402.116 92.7119 402.793 88.2002 404.146 84.0576C405.5 79.874 407.51 76.2236 410.176 73.1064C412.842 69.9893 416.184 67.5693 420.204 65.8467C424.224 64.083 428.899 63.2012 434.231 63.2012C438.948 63.2012 443.173 63.96 446.905 65.4775C450.638 66.9951 453.796 69.1689 456.38 71.999C459.005 74.8291 460.994 78.2539 462.348 82.2734C463.742 86.293 464.439 90.8047 464.439 95.8086V104.237H410.053V91.2559H444.198V89.6562C444.239 87.4414 443.85 85.5547 443.029 83.9961C442.25 82.4375 441.101 81.248 439.584 80.4277C438.066 79.6074 436.221 79.1973 434.047 79.1973C431.791 79.1973 429.925 79.6895 428.448 80.6738C427.013 81.6582 425.885 83.0117 425.064 84.7344C424.285 86.416 423.731 88.3643 423.403 90.5791C423.075 92.7939 422.911 95.1318 422.911 97.5928V99.9307C422.911 102.392 423.239 104.627 423.895 106.637C424.593 108.646 425.577 110.369 426.849 111.805C428.161 113.199 429.72 114.286 431.524 115.065C433.37 115.845 435.462 116.234 437.8 116.234C440.63 116.234 443.419 115.701 446.167 114.635C448.915 113.568 451.273 111.805 453.242 109.344L462.655 120.541C461.302 122.469 459.374 124.335 456.872 126.14C454.411 127.944 451.458 129.421 448.013 130.569C444.567 131.677 440.712 132.23 436.446 132.23ZM496.306 80.9199V131H475.573V64.4316H494.953L496.306 80.9199ZM515.994 63.9395L515.624 83.1963C514.804 83.1143 513.697 83.0117 512.302 82.8887C510.908 82.7656 509.739 82.7041 508.795 82.7041C506.375 82.7041 504.284 82.9912 502.52 83.5654C500.797 84.0986 499.362 84.9189 498.213 86.0264C497.106 87.0928 496.286 88.4463 495.752 90.0869C495.26 91.7275 495.035 93.6348 495.076 95.8086L491.323 93.3477C491.323 88.877 491.753 84.8164 492.615 81.166C493.517 77.4746 494.788 74.2959 496.429 71.6299C498.07 68.9229 500.059 66.8516 502.397 65.416C504.735 63.9395 507.36 63.2012 510.272 63.2012C511.297 63.2012 512.302 63.2627 513.287 63.3857C514.312 63.5088 515.214 63.6934 515.994 63.9395ZM516.299 121.279C516.299 118.326 517.365 115.865 519.498 113.896C521.631 111.887 524.379 110.882 527.742 110.882C531.146 110.882 533.894 111.887 535.986 113.896C538.119 115.865 539.185 118.326 539.185 121.279C539.185 124.232 538.119 126.714 535.986 128.724C533.894 130.692 531.146 131.677 527.742 131.677C524.379 131.677 521.631 130.692 519.498 128.724C517.365 126.714 516.299 124.232 516.299 121.279Z" fill="#333333"/>
<path d="M83.96 13.8359V161H49.8979V52.2441L16.3413 62.0483V36.1733L80.8267 13.8359H83.96Z" fill="#F0F0F0"/>
<path d="M88.4512 137.315V135.586C88.4512 134.343 88.7207 133.213 89.2598 132.194C89.7988 131.176 90.6074 130.36 91.6855 129.746C92.7637 129.132 94.1038 128.825 95.7061 128.825C97.3532 128.825 98.7158 129.132 99.7939 129.746C100.872 130.36 101.673 131.176 102.197 132.194C102.736 133.213 103.006 134.343 103.006 135.586V137.315C103.006 138.528 102.736 139.644 102.197 140.662C101.673 141.68 100.872 142.496 99.7939 143.11C98.7308 143.724 97.3906 144.031 95.7734 144.031C94.1413 144.031 92.7861 143.724 91.708 143.11C90.6299 142.496 89.8138 141.68 89.2598 140.662C88.7207 139.644 88.4512 138.528 88.4512 137.315ZM93.3027 135.586V137.315C93.3027 137.765 93.3926 138.191 93.5723 138.596C93.752 139 94.0215 139.329 94.3809 139.584C94.7552 139.824 95.2119 139.943 95.751 139.943C96.305 139.943 96.7542 139.824 97.0986 139.584C97.443 139.329 97.6976 139 97.8623 138.596C98.042 138.191 98.1318 137.765 98.1318 137.315V135.586C98.1318 135.107 98.042 134.665 97.8623 134.261C97.6976 133.856 97.4355 133.535 97.0762 133.295C96.7168 133.04 96.2601 132.913 95.7061 132.913C95.182 132.913 94.7402 133.04 94.3809 133.295C94.0215 133.535 93.752 133.856 93.5723 134.261C93.3926 134.665 93.3027 135.107 93.3027 135.586ZM103.972 155.711V153.981C103.972 152.754 104.241 151.631 104.78 150.612C105.334 149.594 106.15 148.778 107.229 148.164C108.322 147.55 109.669 147.243 111.271 147.243C112.919 147.243 114.274 147.55 115.337 148.164C116.415 148.778 117.216 149.594 117.74 150.612C118.279 151.631 118.549 152.754 118.549 153.981V155.711C118.549 156.939 118.279 158.062 117.74 159.08C117.216 160.098 116.423 160.914 115.359 161.528C114.296 162.142 112.956 162.449 111.339 162.449C109.707 162.449 108.344 162.142 107.251 161.528C106.158 160.914 105.334 160.098 104.78 159.08C104.241 158.062 103.972 156.939 103.972 155.711ZM108.846 153.981V155.711C108.846 156.175 108.958 156.609 109.183 157.014C109.407 157.418 109.707 157.747 110.081 158.002C110.455 158.242 110.867 158.361 111.316 158.361C112.005 158.361 112.514 158.242 112.844 158.002C113.188 157.747 113.413 157.418 113.518 157.014C113.637 156.609 113.697 156.175 113.697 155.711V153.981C113.697 153.517 113.607 153.083 113.428 152.679C113.248 152.274 112.979 151.952 112.619 151.713C112.26 151.458 111.811 151.331 111.271 151.331C110.732 151.331 110.283 151.458 109.924 151.713C109.564 151.952 109.295 152.274 109.115 152.679C108.936 153.083 108.846 153.517 108.846 153.981ZM113.158 133.991L97.1885 159.552L93.6621 157.777L109.632 132.217L113.158 133.991Z" fill="#F0F0F0"/>
<rect x="1.5" y="-1.5" width="564" height="173" transform="matrix(1 0 0 -1 0 173)" stroke="#333333" stroke-width="3"/>
</g>
<defs>
<clipPath id="clip0_2_22">
<rect width="567" height="176" fill="white"/>
</clipPath>
</defs>
</svg>
