<svg width="1800" height="1087" viewBox="0 0 1800 1087" fill="none" xmlns="http://www.w3.org/2000/svg">
<g clip-path="url(#clip0_10_3)">
<path d="M0 1087H529.412H1800V0H0V1087Z" fill="#F0F0F0"/>
<rect x="4.76191" y="-4.76191" width="1790.48" height="1077.48" transform="matrix(1 0 0 -1 0 1077.48)" stroke="#333333" stroke-width="9.52382"/>
<path d="M415.873 558.73H822.969H1800V0H415.873V558.73Z" fill="#F0F0F0"/>
<path d="M0 558.73H124.183H422.223V0H0V558.73Z" fill="#333333"/>
<path d="M533.426 117.098H599.247V365.145L592.411 417.098H533.426V117.098ZM728.934 309.09V313.192C728.934 329.207 727.307 343.791 724.051 356.942C720.796 370.093 715.783 381.486 709.012 391.121C702.242 400.626 693.713 407.983 683.426 413.192C673.14 418.4 660.965 421.004 646.903 421.004C634.143 421.004 623.205 418.27 614.09 412.801C604.976 407.202 597.359 399.52 591.239 389.754C585.119 379.858 580.171 368.465 576.395 355.574C572.619 342.554 569.624 328.621 567.411 313.778V308.895C569.624 294.181 572.619 280.379 576.395 267.488C580.171 254.468 585.119 243.074 591.239 233.309C597.359 223.413 604.911 215.731 613.895 210.262C623.01 204.663 633.882 201.863 646.512 201.863C660.705 201.863 672.945 204.533 683.231 209.871C693.648 215.21 702.242 222.697 709.012 232.332C715.783 241.968 720.796 253.296 724.051 266.317C727.307 279.337 728.934 293.595 728.934 309.09ZM663.114 313.192V309.09C663.114 301.408 662.658 294.181 661.747 287.41C660.835 280.639 659.208 274.65 656.864 269.442C654.52 264.233 651.2 260.132 646.903 257.137C642.606 254.142 637.007 252.645 630.106 252.645C623.075 252.645 617.15 253.817 612.333 256.16C607.645 258.504 603.869 261.889 601.005 266.317C598.27 270.613 596.317 275.952 595.145 282.332C593.973 288.582 593.452 295.679 593.583 303.621V319.051C593.322 329.858 594.299 339.103 596.512 346.785C598.726 354.468 602.567 360.327 608.036 364.363C613.505 368.4 620.992 370.418 630.497 370.418C637.528 370.418 643.192 369.051 647.489 366.317C651.916 363.582 655.236 359.676 657.45 354.598C659.663 349.52 661.161 343.465 661.942 336.434C662.723 329.403 663.114 321.655 663.114 313.192ZM868.575 421.004C851.387 421.004 836.023 418.335 822.481 412.996C808.939 407.528 797.481 400.041 788.106 390.535C778.861 381.03 771.765 370.093 766.817 357.723C761.999 345.353 759.59 332.267 759.59 318.465V311.043C759.59 295.548 761.739 281.225 766.036 268.074C770.333 254.793 776.713 243.205 785.176 233.309C793.64 223.413 804.252 215.731 817.012 210.262C829.773 204.663 844.617 201.863 861.544 201.863C876.518 201.863 889.929 204.272 901.778 209.09C913.627 213.908 923.653 220.809 931.856 229.793C940.189 238.777 946.505 249.65 950.801 262.41C955.229 275.171 957.442 289.494 957.442 305.379V332.137H784.786V290.926H893.184V285.848C893.314 278.817 892.077 272.827 889.473 267.879C886.999 262.931 883.354 259.155 878.536 256.551C873.718 253.947 867.859 252.645 860.958 252.645C853.796 252.645 847.872 254.207 843.184 257.332C838.627 260.457 835.046 264.754 832.442 270.223C829.968 275.561 828.21 281.746 827.169 288.778C826.127 295.809 825.606 303.231 825.606 311.043V318.465C825.606 326.278 826.648 333.374 828.731 339.754C830.945 346.134 834.07 351.603 838.106 356.16C842.273 360.587 847.221 364.038 852.95 366.512C858.809 368.986 865.45 370.223 872.872 370.223C881.856 370.223 890.71 368.53 899.434 365.145C908.158 361.759 915.645 356.16 921.895 348.348L951.778 383.895C947.481 390.015 941.361 395.939 933.419 401.668C925.606 407.397 916.231 412.085 905.294 415.731C894.356 419.246 882.117 421.004 868.575 421.004ZM1103.53 205.77V251.473H976.184V205.77H1103.53ZM1002.94 153.231H1068.76V348.153C1068.76 353.751 1069.41 358.113 1070.72 361.238C1072.02 364.233 1074.23 366.382 1077.36 367.684C1080.61 368.856 1084.91 369.442 1090.25 369.442C1094.02 369.442 1097.15 369.376 1099.62 369.246C1102.1 368.986 1104.44 368.66 1106.65 368.27V415.34C1101.05 417.163 1095.19 418.53 1089.07 419.442C1082.96 420.483 1076.44 421.004 1069.54 421.004C1055.48 421.004 1043.44 418.791 1033.41 414.363C1023.52 409.936 1015.96 402.97 1010.75 393.465C1005.55 383.96 1002.94 371.59 1002.94 356.356V153.231ZM1249.03 205.77V251.473H1121.68V205.77H1249.03ZM1148.44 153.231H1214.26V348.153C1214.26 353.751 1214.91 358.113 1216.22 361.238C1217.52 364.233 1219.73 366.382 1222.86 367.684C1226.11 368.856 1230.41 369.442 1235.75 369.442C1239.52 369.442 1242.65 369.376 1245.12 369.246C1247.6 368.986 1249.94 368.66 1252.15 368.27V415.34C1246.55 417.163 1240.69 418.53 1234.57 419.442C1228.46 420.483 1221.94 421.004 1215.04 421.004C1200.98 421.004 1188.94 418.791 1178.91 414.363C1169.02 409.936 1161.46 402.97 1156.25 393.465C1151.05 383.96 1148.44 371.59 1148.44 356.356V153.231ZM1385.54 421.004C1368.36 421.004 1352.99 418.335 1339.45 412.996C1325.91 407.528 1314.45 400.041 1305.07 390.535C1295.83 381.03 1288.73 370.093 1283.79 357.723C1278.97 345.353 1276.56 332.267 1276.56 318.465V311.043C1276.56 295.548 1278.71 281.225 1283 268.074C1287.3 254.793 1293.68 243.205 1302.15 233.309C1310.61 223.413 1321.22 215.731 1333.98 210.262C1346.74 204.663 1361.59 201.863 1378.51 201.863C1393.49 201.863 1406.9 204.272 1418.75 209.09C1430.6 213.908 1440.62 220.809 1448.82 229.793C1457.16 238.777 1463.47 249.65 1467.77 262.41C1472.2 275.171 1474.41 289.494 1474.41 305.379V332.137H1301.75V290.926H1410.15V285.848C1410.28 278.817 1409.05 272.827 1406.44 267.879C1403.97 262.931 1400.32 259.155 1395.5 256.551C1390.69 253.947 1384.83 252.645 1377.93 252.645C1370.77 252.645 1364.84 254.207 1360.15 257.332C1355.6 260.457 1352.02 264.754 1349.41 270.223C1346.94 275.561 1345.18 281.746 1344.14 288.778C1343.1 295.809 1342.57 303.231 1342.57 311.043V318.465C1342.57 326.278 1343.62 333.374 1345.7 339.754C1347.91 346.134 1351.04 351.603 1355.07 356.16C1359.24 360.587 1364.19 364.038 1369.92 366.512C1375.78 368.986 1382.42 370.223 1389.84 370.223C1398.82 370.223 1407.68 368.53 1416.4 365.145C1425.13 361.759 1432.61 356.16 1438.86 348.348L1468.75 383.895C1464.45 390.015 1458.33 395.939 1450.39 401.668C1442.57 407.397 1433.2 412.085 1422.26 415.731C1411.32 419.246 1399.09 421.004 1385.54 421.004ZM1575.57 258.113V417.098H1509.75V205.77H1571.28L1575.57 258.113ZM1638.07 204.207L1636.9 265.34C1634.3 265.08 1630.78 264.754 1626.36 264.363C1621.93 263.973 1618.22 263.778 1615.22 263.778C1607.54 263.778 1600.9 264.689 1595.3 266.512C1589.83 268.205 1585.28 270.809 1581.63 274.324C1578.11 277.71 1575.51 282.007 1573.82 287.215C1572.25 292.423 1571.54 298.478 1571.67 305.379L1559.75 297.567C1559.75 283.374 1561.12 270.483 1563.86 258.895C1566.72 247.176 1570.76 237.085 1575.97 228.621C1581.17 220.027 1587.49 213.452 1594.91 208.895C1602.33 204.207 1610.67 201.863 1619.91 201.863C1623.17 201.863 1626.36 202.059 1629.48 202.449C1632.74 202.84 1635.6 203.426 1638.07 204.207ZM1639.04 386.238C1639.04 376.863 1642.43 369.051 1649.2 362.801C1655.97 356.421 1664.69 353.231 1675.37 353.231C1686.18 353.231 1694.9 356.421 1701.54 362.801C1708.31 369.051 1711.7 376.863 1711.7 386.238C1711.7 395.613 1708.31 403.491 1701.54 409.871C1694.9 416.121 1686.18 419.246 1675.37 419.246C1664.69 419.246 1655.97 416.121 1649.2 409.871C1642.43 403.491 1639.04 395.613 1639.04 386.238Z" fill="#333333"/>
<path d="M266.539 43.2572V510.444H158.406V165.188L51.8766 196.312V114.17L256.592 43.2572H266.539Z" fill="#F0F0F0"/>
<path d="M280.797 434.858V429.368C280.797 425.423 281.653 421.834 283.364 418.601C285.075 415.369 287.642 412.778 291.065 410.829C294.487 408.88 298.742 407.905 303.828 407.905C309.057 407.905 313.383 408.88 316.806 410.829C320.228 412.778 322.771 415.369 324.435 418.601C326.147 421.834 327.002 425.423 327.002 429.368V434.858C327.002 438.709 326.147 442.25 324.435 445.483C322.771 448.715 320.228 451.306 316.806 453.255C313.431 455.204 309.176 456.179 304.042 456.179C298.861 456.179 294.559 455.204 291.136 453.255C287.713 451.306 285.123 448.715 283.364 445.483C281.653 442.25 280.797 438.709 280.797 434.858ZM296.199 429.368V434.858C296.199 436.285 296.484 437.639 297.054 438.923C297.625 440.206 298.48 441.252 299.621 442.06C300.81 442.821 302.26 443.201 303.971 443.201C305.73 443.201 307.156 442.821 308.249 442.06C309.342 441.252 310.151 440.206 310.673 438.923C311.244 437.639 311.529 436.285 311.529 434.858V429.368C311.529 427.847 311.244 426.445 310.673 425.161C310.151 423.878 309.319 422.856 308.178 422.095C307.037 421.287 305.587 420.883 303.828 420.883C302.164 420.883 300.762 421.287 299.621 422.095C298.48 422.856 297.625 423.878 297.054 425.161C296.484 426.445 296.199 427.847 296.199 429.368ZM330.068 493.257V487.766C330.068 483.868 330.924 480.303 332.635 477.071C334.394 473.838 336.985 471.248 340.407 469.299C343.878 467.35 348.156 466.375 353.242 466.375C358.471 466.375 362.773 467.35 366.148 469.299C369.571 471.248 372.114 473.838 373.778 477.071C375.489 480.303 376.345 483.868 376.345 487.766V493.257C376.345 497.155 375.489 500.72 373.778 503.953C372.114 507.185 369.595 509.776 366.22 511.725C362.845 513.674 358.59 514.648 353.456 514.648C348.275 514.648 343.949 513.674 340.479 511.725C337.009 509.776 334.394 507.185 332.635 503.953C330.924 500.72 330.068 497.155 330.068 493.257ZM345.541 487.766V493.257C345.541 494.731 345.898 496.109 346.611 497.393C347.324 498.676 348.275 499.722 349.463 500.53C350.652 501.291 351.959 501.671 353.385 501.671C355.572 501.671 357.188 501.291 358.234 500.53C359.327 499.722 360.04 498.676 360.373 497.393C360.753 496.109 360.943 494.731 360.943 493.257V487.766C360.943 486.293 360.658 484.914 360.087 483.631C359.517 482.347 358.661 481.325 357.521 480.565C356.38 479.757 354.954 479.353 353.242 479.353C351.531 479.353 350.105 479.757 348.964 480.565C347.823 481.325 346.967 482.347 346.397 483.631C345.827 484.914 345.541 486.293 345.541 487.766ZM359.232 424.305L308.534 505.45L297.34 499.817L348.037 418.672L359.232 424.305Z" fill="#F0F0F0"/>
<rect x="4.76191" y="-4.76191" width="1790.48" height="549.206" transform="matrix(1 0 0 -1 0 549.206)" stroke="#333333" stroke-width="9.52382"/>
<path d="M242.039 894.562V643H308.25V943H248.875L242.039 894.562ZM112.352 839.875V835.773C112.352 819.758 114.109 805.174 117.625 792.023C121.141 778.742 126.349 767.349 133.25 757.844C140.151 748.208 148.745 740.786 159.031 735.578C169.318 730.37 181.167 727.766 194.578 727.766C206.557 727.766 217.039 730.565 226.023 736.164C235.008 741.633 242.69 749.315 249.07 759.211C255.451 769.107 260.659 780.695 264.695 793.977C268.732 807.128 271.792 821.32 273.875 836.555V841.437C271.792 855.76 268.732 869.302 264.695 882.062C260.659 894.693 255.451 905.891 249.07 915.656C242.69 925.422 234.943 933.104 225.828 938.703C216.844 944.172 206.297 946.906 194.188 946.906C180.776 946.906 168.927 944.237 158.641 938.898C148.484 933.56 139.956 926.073 133.055 916.437C126.284 906.802 121.141 895.474 117.625 882.453C114.109 869.432 112.352 855.24 112.352 839.875ZM178.172 835.773V839.875C178.172 847.818 178.693 855.174 179.734 861.945C180.776 868.716 182.534 874.706 185.008 879.914C187.612 884.992 190.997 888.964 195.164 891.828C199.461 894.693 204.734 896.125 210.984 896.125C219.448 896.125 226.414 894.107 231.883 890.07C237.482 886.034 241.583 880.305 244.188 872.883C246.922 865.461 248.094 856.737 247.703 846.711V831.281C247.964 822.687 247.378 815.135 245.945 808.625C244.513 801.984 242.234 796.45 239.109 792.023C236.115 787.596 232.273 784.276 227.586 782.062C223.029 779.719 217.625 778.547 211.375 778.547C205.255 778.547 200.047 779.979 195.75 782.844C191.583 785.708 188.198 789.745 185.594 794.953C182.99 800.031 181.102 806.086 179.93 813.117C178.758 820.018 178.172 827.57 178.172 835.773ZM463.32 889.875V802.766C463.32 796.776 462.474 791.633 460.781 787.336C459.089 783.039 456.419 779.719 452.773 777.375C449.128 774.901 444.245 773.664 438.125 773.664C433.177 773.664 428.945 774.51 425.43 776.203C421.914 777.896 419.245 780.435 417.422 783.82C415.599 787.206 414.688 791.503 414.688 796.711H348.867C348.867 786.945 351.016 777.896 355.313 769.562C359.74 761.099 365.99 753.742 374.063 747.492C382.266 741.242 392.031 736.424 403.359 733.039C414.818 729.523 427.578 727.766 441.641 727.766C458.438 727.766 473.412 730.565 486.563 736.164C499.844 741.763 510.326 750.161 518.008 761.359C525.69 772.427 529.531 786.359 529.531 803.156V889.68C529.531 903.482 530.313 913.964 531.875 921.125C533.438 928.156 535.651 934.341 538.516 939.68V943H472.5C469.375 936.49 467.031 928.547 465.469 919.172C464.037 909.667 463.32 899.901 463.32 889.875ZM471.328 813.898L471.719 849.055H442.617C436.497 849.055 431.289 849.901 426.992 851.594C422.826 853.286 419.44 855.63 416.836 858.625C414.362 861.49 412.539 864.745 411.367 868.391C410.326 872.036 409.805 875.878 409.805 879.914C409.805 883.82 410.716 887.336 412.539 890.461C414.492 893.456 417.096 895.799 420.352 897.492C423.607 899.185 427.253 900.031 431.289 900.031C438.581 900.031 444.766 898.664 449.844 895.93C455.052 893.065 459.023 889.615 461.758 885.578C464.492 881.542 465.859 877.766 465.859 874.25L480.313 901.203C477.708 906.411 474.714 911.685 471.328 917.023C468.073 922.362 463.971 927.31 459.023 931.867C454.206 936.294 448.281 939.94 441.25 942.805C434.219 945.539 425.69 946.906 415.664 946.906C402.643 946.906 390.664 944.237 379.727 938.898C368.919 933.56 360.26 926.138 353.75 916.633C347.24 906.997 343.984 895.93 343.984 883.43C343.984 872.492 345.938 862.727 349.844 854.133C353.88 845.539 359.935 838.247 368.008 832.258C376.081 826.268 386.367 821.711 398.867 818.586C411.367 815.461 426.081 813.898 443.008 813.898H471.328ZM643.586 731.672V943H577.57V731.672H643.586ZM573.664 677.18C573.664 667.805 577.05 660.122 583.82 654.133C590.591 648.143 599.38 645.148 610.188 645.148C620.995 645.148 629.784 648.143 636.555 654.133C643.326 660.122 646.711 667.805 646.711 677.18C646.711 686.555 643.326 694.237 636.555 700.227C629.784 706.216 620.995 709.211 610.188 709.211C599.38 709.211 590.591 706.216 583.82 700.227C577.05 694.237 573.664 686.555 573.664 677.18ZM761.742 643V943H695.727V643H761.742ZM875.211 918.195L929.899 731.672H1000.6L915.641 974.445C913.818 979.784 911.409 985.513 908.414 991.633C905.419 997.883 901.318 1003.81 896.11 1009.41C890.901 1015.01 884.195 1019.56 875.992 1023.08C867.919 1026.59 857.893 1028.35 845.914 1028.35C839.534 1028.35 834.846 1028.03 831.852 1027.38C828.987 1026.85 824.56 1025.88 818.57 1024.45V977.375C820.263 977.375 821.695 977.375 822.867 977.375C824.169 977.375 825.602 977.375 827.164 977.375C834.195 977.375 839.794 976.659 843.961 975.227C848.258 973.794 851.513 971.711 853.727 968.977C856.07 966.242 857.893 962.922 859.195 959.016L875.211 918.195ZM861.344 731.672L902.945 879.523L910.172 949.25H866.031L790.836 731.672H861.344ZM1202.93 643V943H1136.91V643H1202.93ZM1243.35 839.484V835.383C1243.35 819.888 1245.57 805.63 1249.99 792.609C1254.42 779.458 1260.93 768.065 1269.52 758.43C1278.12 748.794 1288.73 741.307 1301.36 735.969C1313.99 730.5 1328.57 727.766 1345.11 727.766C1361.78 727.766 1376.42 730.5 1389.05 735.969C1401.82 741.307 1412.49 748.794 1421.09 758.43C1429.68 768.065 1436.19 779.458 1440.62 792.609C1445.04 805.63 1447.26 819.888 1447.26 835.383V839.484C1447.26 854.849 1445.04 869.107 1440.62 882.258C1436.19 895.279 1429.68 906.672 1421.09 916.437C1412.49 926.073 1401.88 933.56 1389.25 938.898C1376.62 944.237 1362.04 946.906 1345.5 946.906C1328.96 946.906 1314.32 944.237 1301.55 938.898C1288.79 933.56 1278.12 926.073 1269.52 916.437C1260.93 906.672 1254.42 895.279 1249.99 882.258C1245.57 869.107 1243.35 854.849 1243.35 839.484ZM1309.17 835.383V839.484C1309.17 847.427 1309.76 854.849 1310.93 861.75C1312.1 868.651 1314.05 874.706 1316.79 879.914C1319.52 884.992 1323.23 888.964 1327.92 891.828C1332.61 894.693 1338.47 896.125 1345.5 896.125C1352.4 896.125 1358.13 894.693 1362.69 891.828C1367.38 888.964 1371.09 884.992 1373.82 879.914C1376.55 874.706 1378.51 868.651 1379.68 861.75C1380.85 854.849 1381.44 847.427 1381.44 839.484V835.383C1381.44 827.701 1380.85 820.474 1379.68 813.703C1378.51 806.802 1376.55 800.747 1373.82 795.539C1371.09 790.2 1367.38 786.034 1362.69 783.039C1358 780.044 1352.14 778.547 1345.11 778.547C1338.21 778.547 1332.41 780.044 1327.73 783.039C1323.17 786.034 1319.52 790.2 1316.79 795.539C1314.05 800.747 1312.1 806.802 1310.93 813.703C1309.76 820.474 1309.17 827.701 1309.17 835.383ZM1617.37 731.672H1677.13V934.797C1677.13 954.328 1672.64 970.865 1663.66 984.406C1654.67 998.078 1642.11 1008.43 1625.96 1015.46C1609.95 1022.62 1591.2 1026.2 1569.71 1026.2C1560.21 1026.2 1550.51 1024.97 1540.61 1022.49C1530.71 1020.15 1521.47 1016.63 1512.88 1011.95C1504.28 1007.26 1497.05 1001.46 1491.2 994.563L1518.73 955.891C1524.07 961.88 1530.78 966.958 1538.85 971.125C1546.92 975.422 1556.43 977.57 1567.37 977.57C1576.87 977.57 1584.82 975.878 1591.2 972.492C1597.71 969.107 1602.65 964.159 1606.04 957.648C1609.42 951.268 1611.12 943.521 1611.12 934.406V781.672L1617.37 731.672ZM1476.94 839.875V835.773C1476.94 819.758 1478.89 805.174 1482.8 792.023C1486.83 778.742 1492.56 767.349 1499.98 757.844C1507.54 748.208 1516.65 740.786 1527.33 735.578C1538.01 730.37 1550.05 727.766 1563.46 727.766C1577.91 727.766 1589.76 730.565 1599.01 736.164C1608.38 741.633 1615.87 749.315 1621.47 759.211C1627.2 769.107 1631.63 780.695 1634.75 793.977C1638.01 807.128 1640.74 821.32 1642.95 836.555V841.437C1640.74 855.76 1637.68 869.302 1633.77 882.062C1630 894.693 1625.05 905.891 1618.93 915.656C1612.81 925.422 1605.13 933.104 1595.88 938.703C1586.77 944.172 1575.83 946.906 1563.07 946.906C1549.79 946.906 1537.81 944.237 1527.13 938.898C1516.59 933.56 1507.54 926.073 1499.98 916.437C1492.56 906.802 1486.83 895.474 1482.8 882.453C1478.89 869.432 1476.94 855.24 1476.94 839.875ZM1542.76 835.773V839.875C1542.76 847.818 1543.47 855.174 1544.91 861.945C1546.47 868.716 1548.81 874.706 1551.94 879.914C1555.06 884.992 1558.9 888.964 1563.46 891.828C1568.15 894.693 1573.62 896.125 1579.87 896.125C1589.37 896.125 1597.05 894.107 1602.91 890.07C1608.77 886.034 1613.01 880.305 1615.61 872.883C1618.21 865.461 1619.32 856.737 1618.93 846.711V831.281C1619.19 822.687 1618.6 815.135 1617.17 808.625C1615.74 801.984 1613.46 796.45 1610.34 792.023C1607.34 787.596 1603.3 784.276 1598.23 782.062C1593.28 779.719 1587.29 778.547 1580.26 778.547C1574.14 778.547 1568.73 779.979 1564.05 782.844C1559.36 785.708 1555.45 789.745 1552.33 794.953C1549.2 800.031 1546.79 806.086 1545.1 813.117C1543.54 820.018 1542.76 827.57 1542.76 835.773Z" fill="#333333"/>
</g>
<defs>
<clipPath id="clip0_10_3">
<rect width="1800" height="1087" fill="white"/>
</clipPath>
</defs>
</svg>
