<svg width="1280" height="89" viewBox="0 0 1280 89" fill="none" xmlns="http://www.w3.org/2000/svg">
<g clip-path="url(#clip0_13_5)">
<rect width="1280" height="89" fill="white"/>
<rect width="1280" height="89" fill="url(#paint0_linear_13_5)"/>
<path d="M94.4565 58.8867V16.75H105.547V67H95.6016L94.4565 58.8867ZM72.7339 49.7266V49.0396C72.7339 46.3569 73.0283 43.9142 73.6172 41.7114C74.2061 39.4868 75.0785 37.5785 76.2344 35.9863C77.3903 34.3724 78.8298 33.1292 80.5527 32.2568C82.2757 31.3844 84.2604 30.9482 86.5068 30.9482C88.5133 30.9482 90.269 31.4172 91.7739 32.355C93.2788 33.271 94.5656 34.5578 95.6343 36.2153C96.703 37.8729 97.5754 39.814 98.2515 42.0386C98.9276 44.2414 99.4401 46.6187 99.7891 49.1704V49.9883C99.4401 52.3874 98.9276 54.6556 98.2515 56.793C97.5754 58.9085 96.703 60.7842 95.6343 62.4199C94.5656 64.0557 93.2679 65.3424 91.7412 66.2803C90.2363 67.1963 88.4697 67.6543 86.4414 67.6543C84.195 67.6543 82.2103 67.2072 80.4873 66.313C78.7861 65.4188 77.3576 64.1647 76.2017 62.5508C75.0675 60.9368 74.2061 59.0394 73.6172 56.8584C73.0283 54.6774 72.7339 52.3001 72.7339 49.7266ZM83.7588 49.0396V49.7266C83.7588 51.057 83.846 52.2892 84.0205 53.4233C84.195 54.5575 84.4894 55.5607 84.9038 56.4331C85.34 57.2837 85.9071 57.9489 86.605 58.4287C87.3247 58.9085 88.208 59.1484 89.2549 59.1484C90.6725 59.1484 91.8394 58.8104 92.7554 58.1343C93.6932 57.4582 94.3802 56.4985 94.8164 55.2554C95.2744 54.0122 95.4707 52.5509 95.4053 50.8716V48.2871C95.4489 46.8477 95.3507 45.5827 95.1108 44.4922C94.8709 43.3799 94.4893 42.453 93.9658 41.7114C93.4642 40.9699 92.8208 40.4137 92.0356 40.043C91.2723 39.6504 90.3672 39.4541 89.3203 39.4541C88.2952 39.4541 87.4229 39.694 86.7031 40.1738C86.0052 40.6536 85.4382 41.3298 85.002 42.2021C84.5658 43.0527 84.2495 44.0669 84.0532 45.2446C83.8569 46.4006 83.7588 47.6655 83.7588 49.0396ZM131.521 58.1016V43.5107C131.521 42.5075 131.379 41.646 131.096 40.9263C130.812 40.2065 130.365 39.6504 129.755 39.2578C129.144 38.8434 128.326 38.6362 127.301 38.6362C126.472 38.6362 125.763 38.778 125.174 39.0615C124.586 39.3451 124.139 39.7703 123.833 40.3374C123.528 40.9045 123.375 41.6242 123.375 42.4966H112.35C112.35 40.8608 112.71 39.3451 113.43 37.9492C114.171 36.5316 115.218 35.2993 116.57 34.2524C117.944 33.2056 119.58 32.3986 121.478 31.8315C123.397 31.2427 125.534 30.9482 127.89 30.9482C130.703 30.9482 133.211 31.4172 135.414 32.355C137.639 33.2928 139.395 34.6995 140.681 36.5752C141.968 38.429 142.611 40.7627 142.611 43.5762V58.0688C142.611 60.3807 142.742 62.1364 143.004 63.3359C143.266 64.5137 143.637 65.5496 144.116 66.4438V67H133.059C132.535 65.9095 132.143 64.5791 131.881 63.0088C131.641 61.4167 131.521 59.7809 131.521 58.1016ZM132.862 45.3755L132.928 51.2642H128.053C127.028 51.2642 126.156 51.4059 125.436 51.6895C124.738 51.973 124.171 52.3656 123.735 52.8672C123.321 53.347 123.015 53.8923 122.819 54.5029C122.645 55.1136 122.557 55.757 122.557 56.4331C122.557 57.0874 122.71 57.6763 123.015 58.1997C123.342 58.7013 123.779 59.0939 124.324 59.3774C124.869 59.661 125.48 59.8027 126.156 59.8027C127.377 59.8027 128.413 59.5737 129.264 59.1157C130.136 58.6359 130.801 58.0579 131.259 57.3818C131.717 56.7057 131.946 56.0732 131.946 55.4844L134.367 59.999C133.931 60.8714 133.43 61.7547 132.862 62.6489C132.317 63.5431 131.63 64.3719 130.801 65.1353C129.994 65.8768 129.002 66.4875 127.824 66.9673C126.647 67.4253 125.218 67.6543 123.539 67.6543C121.358 67.6543 119.351 67.2072 117.519 66.313C115.709 65.4188 114.259 64.1756 113.168 62.5835C112.078 60.9696 111.532 59.1157 111.532 57.022C111.532 55.1899 111.86 53.5542 112.514 52.1147C113.19 50.6753 114.204 49.4539 115.556 48.4507C116.909 47.4474 118.632 46.6841 120.725 46.1606C122.819 45.6372 125.284 45.3755 128.119 45.3755H132.862ZM161.716 31.6025V67H150.658V31.6025H161.716ZM150.004 22.4751C150.004 20.9048 150.571 19.618 151.705 18.6147C152.839 17.6115 154.311 17.1099 156.121 17.1099C157.932 17.1099 159.404 17.6115 160.538 18.6147C161.672 19.618 162.239 20.9048 162.239 22.4751C162.239 24.0454 161.672 25.3322 160.538 26.3354C159.404 27.3387 157.932 27.8403 156.121 27.8403C154.311 27.8403 152.839 27.3387 151.705 26.3354C150.571 25.3322 150.004 24.0454 150.004 22.4751ZM181.507 16.75V67H170.449V16.75H181.507ZM200.513 62.8452L209.673 31.6025H221.516L207.285 72.2671C206.979 73.1613 206.576 74.1209 206.074 75.146C205.573 76.1929 204.886 77.1852 204.013 78.123C203.141 79.0609 202.018 79.8242 200.644 80.4131C199.291 81.002 197.612 81.2964 195.606 81.2964C194.537 81.2964 193.752 81.2419 193.25 81.1328C192.77 81.0456 192.029 80.882 191.026 80.6421V72.7578C191.309 72.7578 191.549 72.7578 191.745 72.7578C191.963 72.7578 192.203 72.7578 192.465 72.7578C193.643 72.7578 194.581 72.6379 195.278 72.3979C195.998 72.158 196.543 71.8091 196.914 71.3511C197.307 70.8931 197.612 70.3369 197.83 69.6826L200.513 62.8452ZM198.19 31.6025L205.158 56.3677L206.369 68.0469H198.975L186.38 31.6025H198.19ZM255.406 16.75V67H244.348V16.75H255.406ZM262.176 49.6611V48.9741C262.176 46.3787 262.547 43.9906 263.289 41.8096C264.03 39.6068 265.121 37.6984 266.56 36.0845C268 34.4705 269.777 33.2165 271.893 32.3223C274.008 31.4062 276.451 30.9482 279.221 30.9482C282.012 30.9482 284.466 31.4062 286.582 32.3223C288.719 33.2165 290.507 34.4705 291.947 36.0845C293.386 37.6984 294.477 39.6068 295.218 41.8096C295.96 43.9906 296.331 46.3787 296.331 48.9741V49.6611C296.331 52.2347 295.96 54.6229 295.218 56.8257C294.477 59.0067 293.386 60.915 291.947 62.5508C290.507 64.1647 288.73 65.4188 286.614 66.313C284.499 67.2072 282.056 67.6543 279.286 67.6543C276.516 67.6543 274.063 67.2072 271.925 66.313C269.788 65.4188 268 64.1647 266.56 62.5508C265.121 60.915 264.03 59.0067 263.289 56.8257C262.547 54.6229 262.176 52.2347 262.176 49.6611ZM273.201 48.9741V49.6611C273.201 50.9915 273.299 52.2347 273.496 53.3906C273.692 54.5465 274.019 55.5607 274.477 56.4331C274.935 57.2837 275.557 57.9489 276.342 58.4287C277.127 58.9085 278.109 59.1484 279.286 59.1484C280.442 59.1484 281.402 58.9085 282.165 58.4287C282.95 57.9489 283.572 57.2837 284.03 56.4331C284.488 55.5607 284.815 54.5465 285.011 53.3906C285.208 52.2347 285.306 50.9915 285.306 49.6611V48.9741C285.306 47.6873 285.208 46.4769 285.011 45.3428C284.815 44.1868 284.488 43.1727 284.03 42.3003C283.572 41.4061 282.95 40.7082 282.165 40.2065C281.38 39.7049 280.399 39.4541 279.221 39.4541C278.065 39.4541 277.094 39.7049 276.309 40.2065C275.546 40.7082 274.935 41.4061 274.477 42.3003C274.019 43.1727 273.692 44.1868 273.496 45.3428C273.299 46.4769 273.201 47.6873 273.201 48.9741ZM324.824 31.6025H334.835V65.626C334.835 68.8975 334.082 71.6673 332.577 73.9355C331.073 76.2256 328.968 77.9595 326.263 79.1372C323.581 80.3368 320.44 80.9365 316.842 80.9365C315.249 80.9365 313.625 80.7293 311.967 80.3149C310.31 79.9224 308.761 79.3335 307.322 78.5483C305.882 77.7632 304.672 76.7926 303.69 75.6367L308.303 69.1592C309.197 70.1624 310.32 71.013 311.673 71.7109C313.025 72.4307 314.617 72.7905 316.449 72.7905C318.041 72.7905 319.372 72.507 320.44 71.9399C321.531 71.3729 322.359 70.5441 322.927 69.4536C323.494 68.3849 323.777 67.0872 323.777 65.5605V39.9775L324.824 31.6025ZM301.302 49.7266V49.0396C301.302 46.3569 301.629 43.9142 302.283 41.7114C302.96 39.4868 303.919 37.5785 305.162 35.9863C306.427 34.3724 307.954 33.1292 309.742 32.2568C311.531 31.3844 313.548 30.9482 315.795 30.9482C318.216 30.9482 320.2 31.4172 321.749 32.355C323.319 33.271 324.573 34.5578 325.511 36.2153C326.471 37.8729 327.212 39.814 327.736 42.0386C328.281 44.2414 328.739 46.6187 329.11 49.1704V49.9883C328.739 52.3874 328.226 54.6556 327.572 56.793C326.94 58.9085 326.111 60.7842 325.086 62.4199C324.061 64.0557 322.774 65.3424 321.225 66.2803C319.699 67.1963 317.867 67.6543 315.729 67.6543C313.505 67.6543 311.498 67.2072 309.71 66.313C307.943 65.4188 306.427 64.1647 305.162 62.5508C303.919 60.9368 302.96 59.0394 302.283 56.8584C301.629 54.6774 301.302 52.3001 301.302 49.7266ZM312.327 49.0396V49.7266C312.327 51.057 312.447 52.2892 312.687 53.4233C312.949 54.5575 313.341 55.5607 313.865 56.4331C314.388 57.2837 315.031 57.9489 315.795 58.4287C316.58 58.9085 317.496 59.1484 318.543 59.1484C320.135 59.1484 321.422 58.8104 322.403 58.1343C323.385 57.4582 324.093 56.4985 324.53 55.2554C324.966 54.0122 325.151 52.5509 325.086 50.8716V48.2871C325.129 46.8477 325.031 45.5827 324.791 44.4922C324.551 43.3799 324.17 42.453 323.646 41.7114C323.145 40.9699 322.469 40.4137 321.618 40.043C320.789 39.6504 319.786 39.4541 318.608 39.4541C317.583 39.4541 316.678 39.694 315.893 40.1738C315.108 40.6536 314.453 41.3298 313.93 42.2021C313.407 43.0527 313.003 44.0669 312.72 45.2446C312.458 46.4006 312.327 47.6655 312.327 49.0396Z" fill="#E3E3E3"/>
<path d="M43.3491 14.8359L24.1392 75.8218H14.8813L34.0913 14.8359H43.3491ZM63.1362 14.8359L43.9262 75.8218H34.6684L53.8783 14.8359H63.1362Z" fill="#E3E3E3"/>
</g>
<defs>
<linearGradient id="paint0_linear_13_5" x1="4.76837e-06" y1="44.5012" x2="3175.11" y2="44.5012" gradientUnits="userSpaceOnUse">
<stop stop-color="#2F2F2F"/>
<stop offset="1" stop-color="#2F2F2F" stop-opacity="0"/>
</linearGradient>
<clipPath id="clip0_13_5">
<rect width="1280" height="89" fill="white"/>
</clipPath>
</defs>
</svg>
